<?xml version="1.0" encoding="UTF-8" standalone="no"?>
<!-- Created with Inkscape (http://www.inkscape.org/) -->

<svg
   width="45.650204mm"
   height="42.334213mm"
   viewBox="0 0 45.650204 42.334213"
   version="1.1"
   id="svg1"
   xml:space="preserve"
   sodipodi:docname="signeheart.svg"
   inkscape:version="1.4 (86a8ad7, 2024-10-11)"
   xmlns:inkscape="http://www.inkscape.org/namespaces/inkscape"
   xmlns:sodipodi="http://sodipodi.sourceforge.net/DTD/sodipodi-0.dtd"
   xmlns="http://www.w3.org/2000/svg"
   xmlns:svg="http://www.w3.org/2000/svg"><sodipodi:namedview
     id="namedview1"
     pagecolor="#ffffff"
     bordercolor="#000000"
     borderopacity="0.25"
     inkscape:showpageshadow="2"
     inkscape:pageopacity="0.0"
     inkscape:pagecheckerboard="0"
     inkscape:deskcolor="#d1d1d1"
     inkscape:document-units="mm"
     inkscape:zoom="2.0334082"
     inkscape:cx="75.489025"
     inkscape:cy="61.227255"
     inkscape:window-width="1920"
     inkscape:window-height="1009"
     inkscape:window-x="-8"
     inkscape:window-y="-8"
     inkscape:window-maximized="1"
     inkscape:current-layer="layer1" /><defs
     id="defs1" /><g
     inkscape:label="Layer 1"
     inkscape:groupmode="layer"
     id="layer1"
     transform="translate(-81.657915,-75.066587)"><path
       style="fill:#bc3b32;fill-opacity:1"
       d="m 104.01325,115.88291 c -1.05935,-4.47315 -3.30885,-6.99666 -11.161162,-12.52065 -6.90552,-4.85793 -9.8707,-8.59542 -10.87518,-13.70773 -0.38443,-1.956555 -0.40636,-2.628259 -0.14641,-4.484441 0.90664,-6.473853 6.20194,-10.839705 12.12926,-10.000293 2.49406,0.353203 4.24797,1.313434 6.209092,3.399358 1.88771,2.007848 2.96549,3.955084 3.82255,6.90628 0.53316,1.83587 0.59946,1.940839 0.76792,1.215628 0.53766,-2.314683 0.78149,-3.046408 1.49549,-4.488018 2.33137,-4.707158 5.73585,-7.078393 10.14519,-7.066159 5.29873,0.0147 9.30401,3.400669 10.6132,8.972127 1.05008,4.468802 -0.73372,9.399398 -4.8768,13.479968 -0.82668,0.81422 -3.82478,3.29165 -6.66244,5.50542 -5.49283,4.28516 -7.89982,6.61374 -9.20174,8.90199 -0.81454,1.43162 -1.55487,3.66251 -1.69969,5.12175 -0.059,0.59412 -0.19962,0.28346 -0.55928,-1.23523 z m 2.28824,-7.49602 c 1.38108,-2.85148 3.30624,-5.44323 7.46826,-10.05416 4.19823,-4.65104 5.0904,-5.80218 6.00915,-7.75332 1.69207,-3.593492 1.07314,-7.107277 -1.54431,-8.767211 -1.65579,-1.050075 -3.15312,-1.24932 -5.33755,-0.710258 -4.76241,1.175243 -7.04289,4.43001 -7.89131,11.262729 -0.37324,3.00578 -1.91262,6.16877 -3.61256,7.42278 l -0.86817,0.64043 0.99008,-1.15888 c 1.66118,-1.9444 2.17038,-3.61681 2.1782,-7.15398 0.008,-3.542685 -0.38084,-4.696853 -2.27291,-6.749508 -1.619842,-1.757324 -2.894272,-2.359044 -4.996412,-2.359044 -4.91184,0 -7.78964,4.985663 -5.89258,10.208632 0.82725,2.27759 2.59077,4.79604 5.77904,8.25294 5.308272,5.75553 6.774462,7.85518 7.510432,10.75531 0.51199,2.01749 0.59036,2.03899 0.9646,0.26459 0.1995,-0.94589 0.88172,-2.79136 1.51604,-4.10105 z"
       id="path1" /><path
       style="fill:#ea5633;fill-opacity:1;stroke-width:0.895195"
       d="m 104.0494,113.56246 c -0.94832,-4.00435 -2.96206,-6.26338 -9.991406,-11.20842 -6.181784,-4.348798 -8.836201,-7.694579 -9.735406,-12.271091 -0.34414,-1.751498 -0.363771,-2.352803 -0.131065,-4.014448 0.811619,-5.795358 5.551947,-8.272345 10.858052,-7.520908 2.232669,0.316185 3.80276,1.175779 5.558345,3.043087 1.68987,1.797415 2.65469,3.54057 3.42192,6.182465 0.47729,1.643461 0.53664,1.737428 0.68744,1.088223 0.48131,-2.072091 0.69959,-2.727128 1.33876,-4.017649 2.08703,-4.213823 5.1347,-6.33654 9.08192,-6.325588 4.74339,0.01316 8.3289,1.612961 9.50088,6.6005 0.94002,4.000448 -0.65683,8.414291 -4.36569,12.067195 -0.74004,0.728885 -3.42392,2.946674 -5.96418,4.928424 -4.91715,3.83605 -7.07188,5.92059 -8.23735,7.96901 -0.72917,1.28157 -1.39191,3.27865 -1.52155,4.58497 -0.0528,0.53185 -0.1787,0.25375 -0.50067,-1.10577 z m 2.04842,-6.7104 c 1.23634,-2.55263 2.95973,-4.87275 6.68555,-9.000433 3.75823,-4.163586 4.5569,-5.19408 5.37936,-6.94073 1.51473,-3.216875 0.96067,-4.931097 -1.38246,-6.417061 -1.48225,-0.940021 -2.82265,-1.118384 -4.77814,-0.635819 -4.26329,1.052071 -6.45428,2.971456 -7.21378,9.08807 -0.33413,2.690758 -2.44573,6.015899 -3.96749,7.138493 l -0.77718,0.57332 0.87482,-0.910919 c 1.58577,-1.651206 2.61896,-4.283458 2.62595,-7.449914 0.003,-1.544995 -0.12241,-2.784798 -1.81618,-4.622324 -1.45007,-1.573147 -2.590932,-2.111803 -4.472757,-2.111803 -4.397053,0 -6.973244,3.031838 -5.275006,7.707412 0.74055,2.038886 2.319244,4.293389 5.173366,7.387988 4.751937,5.15232 6.064457,7.03192 6.723297,9.62809 0.45833,1.80605 0.52849,1.82529 0.8635,0.23686 0.17859,-0.84676 0.78931,-2.4988 1.35715,-3.67123 z"
       id="path1-8"
       sodipodi:nodetypes="ssssssssssssssssssssssscsssssssss" /><path
       style="fill:#eab033;fill-opacity:1;stroke-width:0.749828"
       d="m 104.05266,110.98007 c -0.79433,-3.3541 -2.48106,-5.2463 -8.368947,-9.38833 -5.177947,-3.642612 -7.401325,-6.445086 -8.154512,-10.278438 -0.288256,-1.46708 -0.3047,-1.970741 -0.109782,-3.362559 0.679824,-4.854275 4.65039,-6.929034 9.094864,-6.29962 1.870108,0.264841 3.185246,0.984849 4.655747,2.548933 1.41546,1.505541 2.2236,2.965632 2.86625,5.178521 0.39978,1.376587 0.44949,1.455295 0.5758,0.911511 0.40316,-1.735613 0.58599,-2.284281 1.12137,-3.36524 1.74813,-3.529558 4.3009,-5.307576 7.60714,-5.298403 3.97314,0.01102 6.97641,1.35104 7.95808,5.528673 0.78737,3.350833 -0.55017,7.047931 -3.65677,10.107655 -0.61986,0.610525 -2.86792,2.468176 -4.99568,4.128117 -4.11867,3.21313 -5.92351,4.95917 -6.89972,6.67495 -0.61076,1.07346 -1.16588,2.74625 -1.27447,3.84044 -0.0442,0.44548 -0.14968,0.21254 -0.41937,-0.92621 z m 1.71578,-5.62073 c 1.03558,-2.13812 2.47912,-4.08148 5.59992,-7.538882 3.14794,-3.48748 3.81692,-4.350636 4.50583,-5.813655 1.26875,-2.6945 0.80467,-4.130357 -1.15797,-5.375022 -1.24156,-0.787375 -2.36429,-0.936774 -4.00224,-0.532571 -3.57099,0.88123 -5.45436,2.055433 -6.09053,7.178797 -0.27987,2.253817 -2.61958,5.940765 -3.89424,6.881053 l -0.65098,0.48021 0.74239,-0.868958 c 1.2456,-1.45796 2.80323,-3.950164 2.80909,-6.602433 0.003,-1.29411 -0.10254,-2.332587 -1.52126,-3.871725 -1.2146,-1.31769 -2.170206,-1.768876 -3.746449,-1.768876 -3.683032,0 -5.840885,2.539511 -4.418415,6.455838 0.620295,1.7078 1.942628,3.596204 4.33328,6.188284 3.980294,4.31565 5.079674,5.89003 5.631534,8.06462 0.3839,1.51277 0.44267,1.52889 0.72328,0.1984 0.14959,-0.70926 0.66113,-2.09303 1.13676,-3.07508 z"
       id="path1-8-7"
       sodipodi:nodetypes="ssssssssssssssssssssssscsssssssss" /><path
       style="fill:#eacf33;fill-opacity:1;stroke-width:0.635852"
       d="m 104.12714,109.18363 c -0.6736,-2.84427 -2.10395,-4.44886 -7.096851,-7.96128 -4.390892,-3.088946 -6.276313,-5.465438 -6.915014,-8.716112 -0.244441,-1.244082 -0.258385,-1.671185 -0.0931,-2.851445 0.576489,-4.116415 3.943522,-5.875806 7.712431,-5.342065 1.585841,0.224584 2.701074,0.83515 3.948064,2.16149 1.20032,1.276695 1.88561,2.51485 2.43058,4.391376 0.33901,1.167344 0.38116,1.234087 0.48827,0.772959 0.34188,-1.471796 0.49692,-1.937065 0.95092,-2.853717 1.48242,-2.993058 3.64716,-4.500814 6.45084,-4.493036 3.36922,0.0094 5.91599,1.14568 6.74844,4.688304 0.66769,2.841501 -0.46654,5.976633 -3.10093,8.571274 -0.52564,0.517723 -2.43199,2.093012 -4.23633,3.500642 -3.49262,2.72473 -5.02313,4.20537 -5.85096,5.66035 -0.51792,0.91029 -0.98865,2.32881 -1.08074,3.25668 -0.0375,0.37777 -0.12692,0.18024 -0.35562,-0.78542 z m 1.45497,-4.76638 c 0.87817,-1.81311 2.1023,-3.46108 4.74873,-6.392957 2.66944,-2.957376 3.23674,-3.689331 3.82093,-4.929969 1.0759,-2.28493 0.68236,-3.502534 -0.98195,-4.558008 -1.05284,-0.667692 -2.00492,-0.794382 -3.39389,-0.451619 -3.0282,0.747282 -5.24336,2.003239 -5.78283,6.347842 -0.23732,1.911233 -2.39456,5.098574 -3.47546,5.895931 l -0.552027,0.40723 0.629537,-0.73688 c 1.05627,-1.236355 2.5503,-3.410551 2.55526,-5.659669 0.003,-1.097402 0.53116,-2.238266 -0.67196,-3.543452 -1.02998,-1.117398 -1.84032,-1.500003 -3.176986,-1.500003 -3.123202,0 -4.953055,2.1535 -3.746802,5.474538 0.526004,1.448212 1.647346,3.049575 3.674612,5.247656 3.375276,3.65967 4.307546,4.99474 4.775536,6.83879 0.32554,1.28283 0.37538,1.2965 0.61334,0.16824 0.12684,-0.60144 0.56064,-1.77488 0.96396,-2.60767 z"
       id="path1-8-7-1"
       sodipodi:nodetypes="ssssssssssssssssssssssscsssssssss" /></g></svg>
